<?xml version="1.0" standalone="no"?>
<svg xmlns:xlink="http://www.w3.org/1999/xlink" id="wave" style="transform:rotate(180deg); transition: 0.3s" viewBox="0 0 1440 320" version="1.1" xmlns="http://www.w3.org/2000/svg"><defs><linearGradient id="sw-gradient-0" x1="0" x2="0" y1="1" y2="0"><stop stop-color="rgba(62, 133.235, 243, 1)" offset="0%"/><stop stop-color="rgba(11, 231.027, 255, 1)" offset="100%"/></linearGradient></defs><path style="transform:translate(0, 0px); opacity:1" fill="url(#sw-gradient-0)" d="M0,224L14.1,218.7C28.2,213,56,203,85,176C112.9,149,141,107,169,85.3C197.6,64,226,64,254,90.7C282.4,117,311,171,339,192C367.1,213,395,203,424,176C451.8,149,480,107,508,106.7C536.5,107,565,149,593,181.3C621.2,213,649,235,678,250.7C705.9,267,734,277,762,261.3C790.6,245,819,203,847,165.3C875.3,128,904,96,932,96C960,96,988,128,1016,117.3C1044.7,107,1073,53,1101,69.3C1129.4,85,1158,171,1186,170.7C1214.1,171,1242,85,1271,74.7C1298.8,64,1327,128,1355,149.3C1383.5,171,1412,149,1440,133.3C1468.2,117,1496,107,1525,117.3C1552.9,128,1581,160,1609,192C1637.6,224,1666,256,1694,234.7C1722.4,213,1751,139,1779,122.7C1807.1,107,1835,149,1864,170.7C1891.8,192,1920,192,1948,186.7C1976.5,181,2005,171,2019,165.3L2032.9,160L2032.9,320L2018.8,320C2004.7,320,1976,320,1948,320C1920,320,1892,320,1864,320C1835.3,320,1807,320,1779,320C1750.6,320,1722,320,1694,320C1665.9,320,1638,320,1609,320C1581.2,320,1553,320,1525,320C1496.5,320,1468,320,1440,320C1411.8,320,1384,320,1355,320C1327.1,320,1299,320,1271,320C1242.4,320,1214,320,1186,320C1157.6,320,1129,320,1101,320C1072.9,320,1045,320,1016,320C988.2,320,960,320,932,320C903.5,320,875,320,847,320C818.8,320,791,320,762,320C734.1,320,706,320,678,320C649.4,320,621,320,593,320C564.7,320,536,320,508,320C480,320,452,320,424,320C395.3,320,367,320,339,320C310.6,320,282,320,254,320C225.9,320,198,320,169,320C141.2,320,113,320,85,320C56.5,320,28,320,14,320L0,320Z"/><defs><linearGradient id="sw-gradient-1" x1="0" x2="0" y1="1" y2="0"><stop stop-color="rgba(62, 108.707, 243, 1)" offset="0%"/><stop stop-color="rgba(179.499, 11, 255, 1)" offset="100%"/></linearGradient></defs><path style="transform:translate(0, 50px); opacity:0.9" fill="url(#sw-gradient-1)" d="M0,96L14.1,80C28.2,64,56,32,85,42.7C112.9,53,141,107,169,112C197.6,117,226,75,254,69.3C282.4,64,311,96,339,117.3C367.1,139,395,149,424,149.3C451.8,149,480,139,508,154.7C536.5,171,565,213,593,192C621.2,171,649,85,678,90.7C705.9,96,734,192,762,192C790.6,192,819,96,847,85.3C875.3,75,904,149,932,170.7C960,192,988,160,1016,133.3C1044.7,107,1073,85,1101,106.7C1129.4,128,1158,192,1186,218.7C1214.1,245,1242,235,1271,213.3C1298.8,192,1327,160,1355,170.7C1383.5,181,1412,235,1440,261.3C1468.2,288,1496,288,1525,245.3C1552.9,203,1581,117,1609,80C1637.6,43,1666,53,1694,69.3C1722.4,85,1751,107,1779,138.7C1807.1,171,1835,213,1864,208C1891.8,203,1920,149,1948,122.7C1976.5,96,2005,96,2019,96L2032.9,96L2032.9,320L2018.8,320C2004.7,320,1976,320,1948,320C1920,320,1892,320,1864,320C1835.3,320,1807,320,1779,320C1750.6,320,1722,320,1694,320C1665.9,320,1638,320,1609,320C1581.2,320,1553,320,1525,320C1496.5,320,1468,320,1440,320C1411.8,320,1384,320,1355,320C1327.1,320,1299,320,1271,320C1242.4,320,1214,320,1186,320C1157.6,320,1129,320,1101,320C1072.9,320,1045,320,1016,320C988.2,320,960,320,932,320C903.5,320,875,320,847,320C818.8,320,791,320,762,320C734.1,320,706,320,678,320C649.4,320,621,320,593,320C564.7,320,536,320,508,320C480,320,452,320,424,320C395.3,320,367,320,339,320C310.6,320,282,320,254,320C225.9,320,198,320,169,320C141.2,320,113,320,85,320C56.5,320,28,320,14,320L0,320Z"/></svg>